- 
http://www.Speed.Cd 
       
http://www.Speed.Cd       the fast  and The Hottest Private Tracker on the net

(((--Registration will be open on june every weekend--)))

Please Seed back to make the speed Faster!!!

------------------nfo--------------------------
-[img]http://img696.imageshack.us/img696/8696/2393331.jpg[/img]


[color=blue][size=4][b]Super.2010.BDRip.XVID.AC3.HQ.Hive-CM8[/b][/size][/color]


[b]Thx Hive

CM8 Doing It Right The First Time :D


Source: Bluray

Video: 720x384 @bitrate 1800 2pass
Audio: English DTS to AC3 5.1 @448
Sample: yes included
Subs: yes english in srt /subs[/b]


[url]http://www.imdb.com/title/tt1697851/[/url]


General
Complete name                    : Super.2010.BDRip.XVID.AC3.HQ.Hive-CM8.avi
Format                           : AVI
Format/Info                      : Audio Video Interleave
File size                        : 1.51 GiB
Duration                         : 1h 36mn
Overall bit rate                 : 2 256 Kbps
Writing application              : Nandub v1.0rc2
Writing library                  : Nandub build 1853/release

Video
ID                               : 0
Format                           : MPEG-4 Visual
Format profile                   : Advanced Simple@L5
Format settings, BVOP            : 1
Format settings, QPel            : Yes
Format settings, GMC             : No warppoints
Format settings, Matrix          : Default (H.263)
Muxing mode                      : Packed bitstream
Codec ID                         : XVID
Codec ID/Hint                    : XviD
Duration                         : 1h 36mn
Bit rate                         : 1 798 Kbps
Width                            : 720 pixels
Height                           : 384 pixels
Display aspect ratio             : 1.850
Frame rate                       : 23.976 fps
Color space                      : YUV
Chroma subsampling               : 4:2:0
Bit depth                        : 8 bits
Scan type                        : Progressive
Compression mode                 : Lossy
Bits/(Pixel*Frame)               : 0.271
Stream size                      : 1.21 GiB (80%)
Writing library                  : XviD 1.2.1 (UTC 2008-12-04)

Audio
ID                               : 1
Format                           : AC-3
Format/Info                      : Audio Coding 3
Mode extension                   : CM (complete main)
Codec ID                         : 2000
Duration                         : 1h 36mn
Bit rate mode                    : Constant
Bit rate                         : 448 Kbps
Channel(s)                       : 6 channels
Channel positions                : Front: L C R, Side: L R, LFE
Sampling rate                    : 48.0 KHz
Bit depth                        : 16 bits
Compression mode                 : Lossy
Stream size                      : 308 MiB (20%)
Alignment                        : Split accross interleaves
Interleave, duration             : 42 ms (1.00 video frame)
Interleave, preload duration     : 500 ms


Plot:
After his wife falls under the influence of a drug dealer, an everyday guy transforms himself
into Crimson Bolt, a superhero with the best intentions, though he lacks for heroic skills.


Cast:
Rainn Wilson     ...    Frank D'Arbo / The Crimson Bolt
Ellen Page       ...    Libby / Boltie
Liv Tyler        ...    Sarah Helgeland
Kevin Bacon      ...    Jacques
Michael Rooker   ...    Abe



[img]http://img4.imageshack.us/img4/8307/78686580.png[/img]
[img]http://img810.imageshack.us/img810/1487/susuo.png[/img]
[img]http://img818.imageshack.us/img818/3319/sususu.png[/img]
[img]http://img20.imageshack.us/img20/2728/susususu.png[/img]
[img]http://img851.imageshack.us/img851/4599/sususususu.png[/img]
[img]http://img155.imageshack.us/img155/237/susususususu.png[/img]
[img]http://img846.imageshack.us/img846/4410/susususususususu.png[/img]



Greetz

ViSiON,SANTi,MAGNET,THC,T0XiC,LKRG,FANTASIA-PLAY,FANTASIA-M,IMAGiNE,WBZ,FLAWL3SS,NOVA,
D2U,Vik,Rapeseed,SAFC,goldadvance,MEMORY100,KaN1vE,Unevano,Pinnz,Wayne,cedrict wink,
Mr Hive and all P2P groups 
Great Work Guys :D

FYS

CM8@hushmail.com